HIERARCHY
ROOT Hips
{
  OFFSET 0 0 0
  CHANNELS 6 Xposition Yposition Zposition Zrotation Xrotation Yrotation
  JOINT Spine
  {
    OFFSET 0 10.1816 0.1315
    CHANNELS 6 Xposition Yposition Zposition Zrotation Xrotation Yrotation
    JOINT Spine1
    {
      OFFSET 0 10.0835 -1.0008
      CHANNELS 6 Xposition Yposition Zposition Zrotation Xrotation Yrotation
      JOINT Spine2
      {
        OFFSET 0 9.1 -1.3734
        CHANNELS 6 Xposition Yposition Zposition Zrotation Xrotation Yrotation
        JOINT Neck
        {
          OFFSET 0 16.6717 -2.5162
          CHANNELS 6 Xposition Yposition Zposition Zrotation Xrotation Yrotation
          JOINT Head
          {
            OFFSET 0 9.6179 1.685
            CHANNELS 6 Xposition Yposition Zposition Zrotation Xrotation Yrotation
            End Site
            {
              OFFSET 0 17.8152 2.585
            }
          }
        }
        JOINT LeftShoulder
        {
          OFFSET 4.5704 10.946 -2.628
          CHANNELS 6 Xposition Yposition Zposition Zrotation Xrotation Yrotation
          JOINT LeftArm
          {
            OFFSET 10.5924 -0.5246 -2.2321
            CHANNELS 6 Xposition Yposition Zposition Zrotation Xrotation Yrotation
            JOINT LeftForeArm
            {
              OFFSET 27.8415 -0.0001 0
              CHANNELS 6 Xposition Yposition Zposition Zrotation Xrotation Yrotation
              JOINT LeftHand
              {
                OFFSET 28.3288 0 0
                CHANNELS 6 Xposition Yposition Zposition Zrotation Xrotation Yrotation
                End Site
                {
                  OFFSET 0 0 0
                }
              }
            }
          }
        }
        JOINT RightShoulder
        {
          OFFSET -4.57 10.9462 -2.628
          CHANNELS 6 Xposition Yposition Zposition Zrotation Xrotation Yrotation
          JOINT RightArm
          {
            OFFSET -10.5928 -0.5248 -2.2321
            CHANNELS 6 Xposition Yposition Zposition Zrotation Xrotation Yrotation
            JOINT RightForeArm
            {
              OFFSET -27.8415 0 0
              CHANNELS 6 Xposition Yposition Zposition Zrotation Xrotation Yrotation
              JOINT RightHand
              {
                OFFSET -28.3288 0 0.0001
                CHANNELS 6 Xposition Yposition Zposition Zrotation Xrotation Yrotation
                End Site
                {
                  OFFSET 0 0 0
                }
              }
            }
          }
        }
      }
    }
  }
  JOINT LeftUpLeg
  {
    OFFSET 8.2078 -6.7517 -1.5996
    CHANNELS 6 Xposition Yposition Zposition Zrotation Xrotation Yrotation
    JOINT LeftLeg
    {
      OFFSET 0 -44.3705 0.2846
      CHANNELS 6 Xposition Yposition Zposition Zrotation Xrotation Yrotation
      JOINT LeftFoot
      {
        OFFSET 0 -44.4279 -2.9822
        CHANNELS 6 Xposition Yposition Zposition Zrotation Xrotation Yrotation
        JOINT LeftToeBase
        {
          OFFSET 0 -8.7287 10.7106
          CHANNELS 6 Xposition Yposition Zposition Zrotation Xrotation Yrotation
          End Site
          {
            OFFSET 0 0 0
          }
        }
      }
    }
  }
  JOINT RightUpLeg
  {
    OFFSET -8.2078 -6.7517 -1.5996
    CHANNELS 6 Xposition Yposition Zposition Zrotation Xrotation Yrotation
    JOINT RightLeg
    {
      OFFSET 0 -44.3705 0.2862
      CHANNELS 6 Xposition Yposition Zposition Zrotation Xrotation Yrotation
      JOINT RightFoot
      {
        OFFSET 0 -44.4277 -2.9838
        CHANNELS 6 Xposition Yposition Zposition Zrotation Xrotation Yrotation
        JOINT RightToeBase
        {
          OFFSET 0 -8.7287 10.7106
          CHANNELS 6 Xposition Yposition Zposition Zrotation Xrotation Yrotation
          End Site
          {
            OFFSET 0 0 0
          }
        }
      }
    }
  }
}
MOTION
Frames:	11
Frame Time:	0.0333333
0.0329097 101.655 1.54194 -2.22635 0.912868 2.79647 0 10.1816 0.1315 0.956 0.194112 0.283964 0 10.0835 -1.0008 0.496896 0.390972 0.68905 2.22045e-16 9.1 -1.3734 0.496896 0.390972 0.689052 -8.32667e-17 16.6717 -2.5162 -1.20805 0.00530584 -0.455983 -4.44089e-16 9.6179 1.685 1.90747 2.64268 -3.11727 4.5704 10.946 -2.628 -14.6894 4.35347 -14.1479 10.5924 -0.5246 -2.2321 -44.7189 -9.30594 0.612679 27.8415 -0.0001 -4.44089e-16 -5.24851 17.3486 -32.704 28.3288 0 -7.10543e-15 14.6378 15.2993 -15.0062 -4.57 10.9462 -2.628 16.0832 3.4258 6.73398 -10.5928 -0.5248 -2.2321 46.9437 -13.9887 -13.8306 -27.8415 -1.42109e-14 0 10.4737 13.5904 24.2158 -28.3288 -7.10543e-15 0.0001 -8.35644 21.2879 8.75504 8.2078 -6.7517 -1.5996 7.92675 -25.2173 8.98292 -1.77636e-15 -44.3705 0.2846 1.74549 63.7028 -2.44078 -1.77636e-15 -44.4279 -2.9822 -1.24325 -0.957928 0.374824 0 -8.7287 10.7106 0.844297 -3.3512 -1.7717 -8.2078 -6.7517 -1.5996 3.31031 -13.124 -8.24326 0 -44.3705 0.2862 -0.0541245 21.9585 7.84709 8.88178e-16 -44.4277 -2.9838 -4.42256 -9.64026 -0.175006 0 -8.7287 10.7106 0.585935 -4.90079 -0.617411 
-0.0724657 102.123 5.65843 -2.19407 0.962668 1.79313 0 10.1816 0.1315 0.817777 0.207773 0.550637 -4.44089e-16 10.0835 -1.0008 0.226637 0.4172 1.16315 -4.44089e-16 9.1 -1.3734 0.226637 0.417199 1.16315 0 16.6717 -2.5162 -0.585503 0.269455 -0.597956 -4.44089e-16 9.6179 1.685 1.53106 2.44927 -3.02161 4.5704 10.946 -2.628 -14.1662 4.21874 -13.4171 10.5924 -0.5246 -2.2321 -46.4089 -10.0344 3.97112 27.8415 -0.0001 -4.44089e-16 -4.85819 16.3394 -31.8474 28.3288 0 -7.10543e-15 14.1863 16.8934 -16.0792 -4.57 10.9462 -2.628 15.4493 3.43135 7.19523 -10.5928 -0.5248 -2.2321 46.5505 -16.6785 -13.9669 -27.8415 -1.42109e-14 -3.55271e-15 11.5674 12.2061 31.6569 -28.3288 0 0.0001 -6.2966 24.6649 4.18526 8.2078 -6.7517 -1.5996 7.80212 -28.0659 9.17618 -1.77636e-15 -44.3705 0.2846 0.254608 58.8571 0.336344 0 -44.4279 -2.9822 -0.891991 -2.69857 0.366184 -1.77636e-15 -8.7287 10.7106 -0.0374801 -3.78164 -0.746056 -8.2078 -6.7517 -1.5996 3.51628 -9.81394 -8.83687 0 -44.3705 0.2862 0.0390913 20.4863 8.47111 -4.44089e-16 -44.4277 -2.9838 -5.1502 -9.71412 -0.111828 8.88178e-16 -8.7287 10.7106 0.502181 -5.16344 -0.635907 
-0.174655 102.34 9.76912 -2.27365 0.945481 0.876799 -8.88178e-16 10.1816 0.1315 0.675564 0.261119 0.796141 0 10.0835 -1.0008 0.0256917 0.522484 1.60039 4.44089e-16 9.1 -1.3734 0.0256915 0.522484 1.60039 -4.44089e-16 16.6717 -2.5162 0.109481 0.52209 -0.753439 0 9.6179 1.685 1.18679 2.18402 -2.8645 4.5704 10.946 -2.628 -13.8865 4.12604 -12.6608 10.5924 -0.5246 -2.2321 -47.2139 -9.8015 7.0609 27.8415 -0.0001 0 -4.50973 16.3033 -31.6117 28.3288 0 0 14.0114 16.8318 -16.1759 -4.57 10.9462 -2.628 14.7075 3.42636 7.67001 -10.5928 -0.5248 -2.2321 46.6964 -18.1638 -11.7115 -27.8415 1.42109e-14 8.88178e-16 12.6246 11.3542 35.9226 -28.3288 0 0.0001 -5.17021 26.0867 0.51394 8.2078 -6.7517 -1.5996 7.41009 -29.9896 8.75309 -1.77636e-15 -44.3705 0.2846 -0.224155 52.1177 2.64197 8.88178e-16 -44.4279 -2.9822 -0.60634 -4.01014 0.35444 -8.88178e-16 -8.7287 10.7106 -3.34951 -6.05615 3.00359 -8.2078 -6.7517 -1.5996 3.62592 -6.6035 -9.45095 -4.44089e-16 -44.3705 0.2862 0.268867 19.2622 9.21213 -4.44089e-16 -44.4277 -2.9838 -5.37792 -9.69366 -0.0434988 0 -8.7287 10.7106 0.407847 -5.24094 -0.66776 
-0.233449 102.268 13.8662 -2.38524 0.857514 0.109978 0 10.1816 0.1315 0.576647 0.331267 1.00567 0 10.0835 -1.0008 -0.0588182 0.661894 1.97738 0 9.1 -1.3734 -0.0588182 0.661894 1.97738 0 16.6717 -2.5162 0.637207 0.748898 -0.886156 0 9.6179 1.685 0.796327 1.99346 -2.70209 4.5704 10.946 -2.628 -14.0389 4.11534 -12.1579 10.5924 -0.5246 -2.2321 -47.5487 -9.20129 10.2339 27.8415 -0.0001 -1.77636e-15 -4.20365 16.8184 -31.8333 28.3288 7.10543e-15 7.10543e-15 13.9362 16.0048 -15.7952 -4.57 10.9462 -2.628 13.9522 3.41269 8.11641 -10.5928 -0.5248 -2.2321 46.6263 -18.5562 -8.30646 -27.8415 0 -8.88178e-16 13.1212 10.9463 38.8215 -28.3288 0 0.0001 -4.77921 25.9244 -2.62289 8.2078 -6.7517 -1.5996 7.30196 -31.5264 8.52089 -8.88178e-16 -44.3705 0.2846 -0.605998 44.9714 4.28347 -1.77636e-15 -44.4279 -2.9822 0.195117 -5.1092 0.338505 0 -8.7287 10.7106 -3.39612 -5.71266 3.1387 -8.2078 -6.7517 -1.5996 3.52979 -3.53593 -10.1205 8.88178e-16 -44.3705 0.2862 0.694373 18.5676 9.97483 -4.44089e-16 -44.4277 -2.9838 -5.72932 -10.0963 0.00328784 0 -8.7287 10.7106 0.462116 -5.3779 -0.767225 
-0.259641 101.969 18.0938 -2.43088 0.733448 -0.481977 0 10.1816 0.1315 0.461726 0.368847 1.17486 4.44089e-16 10.0835 -1.0008 -0.126941 0.736246 2.28983 8.88178e-16 9.1 -1.3734 -0.126942 0.736245 2.28983 -8.88178e-16 16.6717 -2.5162 1.13286 1.4437 -1.00916 4.44089e-16 9.6179 1.685 0.461773 1.56992 -2.54016 4.5704 10.946 -2.628 -13.7988 4.03904 -11.4898 10.5924 -0.5246 -2.2321 -48.5232 -8.72413 12.7145 27.8415 -0.0001 0 -4.04665 17.5093 -30.9951 28.3288 0 0 13.9889 15.5997 -16.1128 -4.57 10.9462 -2.628 13.2181 3.38849 8.47201 -10.5928 -0.5248 -2.2321 46.7681 -18.5271 -4.285 -27.8415 0 0 12.9413 10.1718 40.3644 -28.3288 0 0.0001 -4.98112 25.6303 -4.53928 8.2078 -6.7517 -1.5996 6.96602 -32.5854 8.08173 0 -44.3705 0.2846 -0.551053 37.2854 5.10517 8.88178e-16 -44.4279 -2.9822 1.08474 -5.21739 0.354607 -8.88178e-16 -8.7287 10.7106 -2.02832 -5.16527 1.48932 -8.2078 -6.7517 -1.5996 3.20257 -0.396164 -10.8922 3.55271e-15 -44.3705 0.2862 1.2503 18.0358 10.8496 4.44089e-16 -44.4277 -2.9838 -6.10813 -10.689 0.032321 0 -8.7287 10.7106 0.486575 -6.9603 -0.904397 
-0.297137 101.487 22.1381 -2.37343 0.640608 -0.948527 0 10.1816 0.1315 0.312578 0.43349 1.31815 -8.88178e-16 10.0835 -1.0008 -0.235979 0.864242 2.56722 8.88178e-16 9.1 -1.3734 -0.235979 0.864241 2.56721 8.88178e-16 16.6717 -2.5162 1.71695 1.78224 -1.15334 -2.22045e-16 9.6179 1.685 0.122199 1.32964 -2.39028 4.5704 10.946 -2.628 -13.4946 3.99838 -11.4814 10.5924 -0.5246 -2.2321 -49.6096 -8.53327 15.2795 27.8415 -0.0001 1.77636e-15 -3.59998 18.0274 -30.2126 28.3288 0 0 13.9185 15.3914 -16.7233 -4.57 10.9462 -2.628 12.8174 3.37118 8.62691 -10.5928 -0.5248 -2.2321 46.8111 -17.6961 0.378069 -27.8415 0 0 11.718 9.17768 41.2674 -28.3288 0 0.0001 -5.81702 24.4999 -5.41126 8.2078 -6.7517 -1.5996 6.62301 -33.5253 7.98638 8.88178e-16 -44.3705 0.2846 -0.305846 29.6869 4.79058 1.77636e-15 -44.4279 -2.9822 1.92714 -3.91172 0.35563 -1.77636e-15 -8.7287 10.7106 -0.778199 -4.93998 -0.0710852 -8.2078 -6.7517 -1.5996 2.76067 2.40217 -11.3654 8.88178e-16 -44.3705 0.2862 1.75493 17.952 11.4639 4.44089e-16 -44.4277 -2.9838 -6.39176 -11.3674 0.056929 -8.88178e-16 -8.7287 10.7106 0.416075 -8.92393 -1.15476 
-0.297959 100.875 26.2208 -2.23116 0.642952 -1.38122 0 10.1816 0.1315 0.148319 0.464069 1.45577 0 10.0835 -1.0008 -0.375742 0.923499 2.8509 0 9.1 -1.3734 -0.375741 0.923499 2.8509 8.88178e-16 16.6717 -2.5162 2.36531 2.17912 -1.33538 0 9.6179 1.685 -0.198908 1.03724 -2.27096 4.5704 10.946 -2.628 -12.9531 3.90738 -11.1282 10.5924 -0.5246 -2.2321 -51.1035 -8.92046 16.9647 27.8415 -0.0001 3.55271e-15 -3.14765 18.3932 -28.5362 28.3288 -7.10543e-15 0 13.775 16.4231 -18.2134 -4.57 10.9462 -2.628 12.3099 3.36701 9.16707 -10.5928 -0.5248 -2.2321 46.9988 -16.4944 4.60034 -27.8415 1.42109e-14 7.10543e-15 9.80832 7.65111 41.3647 -28.3288 1.42109e-14 0.0001 -7.60552 23.1549 -4.63666 8.2078 -6.7517 -1.5996 6.0062 -34.5105 7.42939 0 -44.3705 0.2846 0.217251 22.7229 4.09142 0 -44.4279 -2.9822 1.90358 -1.90741 0.343747 1.77636e-15 -8.7287 10.7106 -1.748 -5.38308 1.06578 -8.2078 -6.7517 -1.5996 2.16835 4.92626 -11.7798 8.88178e-16 -44.3705 0.2862 2.17405 18.2113 12.0687 -4.44089e-16 -44.4277 -2.9838 -6.51508 -11.6396 0.124072 8.88178e-16 -8.7287 10.7106 0.240262 -11.6431 -1.40203 
-0.256398 100.172 30.2209 -2.08426 0.725718 -1.86654 -4.44089e-16 10.1816 0.1315 -0.0118907 0.464006 1.60746 0 10.0835 -1.0008 -0.544277 0.920602 3.17154 0 9.1 -1.3734 -0.544278 0.920603 3.17154 1.77636e-15 16.6717 -2.5162 3.11953 2.52707 -1.57055 0 9.6179 1.685 -0.503793 0.739054 -2.17828 4.5704 10.946 -2.628 -12.8026 3.90607 -11.4377 10.5924 -0.5246 -2.2321 -51.9839 -9.35836 19.2438 27.8415 -0.0001 0 -2.46303 18.5988 -27.7164 28.3288 0 0 13.5521 17.3762 -19.4315 -4.57 10.9462 -2.628 11.7639 3.34213 9.45205 -10.5928 -0.5248 -2.2321 47.3425 -15.0654 8.76839 -27.8415 -1.42109e-14 0 7.69955 6.15992 40.5586 -28.3288 0 0.0001 -10.0992 21.7581 -2.65215 8.2078 -6.7517 -1.5996 5.47066 -36.0552 6.90642 -1.77636e-15 -44.3705 0.2846 0.90612 17.9054 3.19217 0 -44.4279 -2.9822 1.11393 -0.977516 0.342655 0 -8.7287 10.7106 -3.30206 -6.31778 2.84797 -8.2078 -6.7517 -1.5996 1.48972 6.8528 -12.209 -8.88178e-16 -44.3705 0.2862 2.42812 19.2927 12.7033 -4.44089e-16 -44.4277 -2.9838 -6.56417 -11.1171 0.249026 0 -8.7287 10.7106 -0.00810719 -15.7264 -1.58969 
-0.16895 99.4209 34.3521 -1.9991 0.832897 -2.43415 0 10.1816 0.1315 -0.143899 0.448202 1.78363 0 10.0835 -1.0008 -0.72605 0.885342 3.53842 0 9.1 -1.3734 -0.726049 0.885341 3.53842 0 16.6717 -2.5162 3.93055 2.63028 -1.84628 4.44089e-16 9.6179 1.685 -0.721461 0.511402 -2.13531 4.5704 10.946 -2.628 -12.4694 3.84945 -11.1558 10.5924 -0.5246 -2.2321 -52.8529 -10.1075 20.5924 27.8415 -0.0001 0 -1.84465 18.7073 -26.6371 28.3288 0 -1.77636e-15 12.6162 19.5197 -19.5367 -4.57 10.9462 -2.628 11.2117 3.30868 9.6256 -10.5928 -0.5248 -2.2321 47.7804 -13.6003 12.2911 -27.8415 -2.84217e-14 0 5.66296 4.80901 39.2522 -28.3288 0 0.0001 -13.2324 20.3206 0.422246 8.2078 -6.7517 -1.5996 5.25373 -38.3489 6.44496 8.88178e-16 -44.3705 0.2846 1.55442 16.865 2.36536 -8.88178e-16 -44.4279 -2.9822 -0.0900673 -2.07773 0.332059 8.88178e-16 -8.7287 10.7106 -4.38767 -7.50947 3.96002 -8.2078 -6.7517 -1.5996 0.893057 8.74319 -12.5003 0 -44.3705 0.2862 2.40781 20.4066 13.2353 -4.44089e-16 -44.4277 -2.9838 -6.3311 -10.0035 0.445314 0 -8.7287 10.7106 -0.30747 -20.1195 -1.7604 
-0.0240011 98.5716 38.5553 -1.95144 0.883909 -3.01191 0 10.1816 0.1315 -0.264378 0.449351 1.95745 0 10.0835 -1.0008 -0.894437 0.883442 3.91542 -8.88178e-16 9.1 -1.3734 -0.894437 0.883442 3.91542 1.77636e-15 16.6717 -2.5162 4.60112 2.11835 -2.07574 0 9.6179 1.685 -0.745353 0.632294 -2.18033 4.5704 10.946 -2.628 -12.5298 3.86514 -11.2737 10.5924 -0.5246 -2.2321 -52.9172 -10.6045 22.6397 27.8415 -0.0001 0 -1.18617 18.7507 -27.5609 28.3288 -7.10543e-15 3.55271e-15 10.4642 21.6399 -16.5282 -4.57 10.9462 -2.628 10.2196 3.24054 9.84188 -10.5928 -0.5248 -2.2321 48.6582 -12.1384 14.9014 -27.8415 0 0 3.73857 3.64224 38.1067 -28.3288 0 0.0001 -16.6655 18.6142 3.96212 8.2078 -6.7517 -1.5996 5.30632 -40.1812 6.56689 8.88178e-16 -44.3705 0.2846 1.86552 17.876 1.13657 0 -44.4279 -2.9822 -0.942108 -4.4215 0.307385 8.88178e-16 -8.7287 10.7106 -4.59612 -8.75776 3.92195 -8.2078 -6.7517 -1.5996 0.339808 10.4976 -12.8081 0 -44.3705 0.2862 2.07414 21.8858 13.8161 8.88178e-16 -44.4277 -2.9838 -6.102 -8.33318 0.654711 4.44089e-16 -8.7287 10.7106 -0.471717 -24.9737 -2.11599 
0.208907 97.5662 43.2288 -1.91326 0.856258 -3.53592 -4.44089e-16 10.1816 0.1315 -0.357431 0.408912 2.12189 0 10.0835 -1.0008 -1.03697 0.798503 4.25632 0 9.1 -1.3734 -1.03697 0.798502 4.25633 1.77636e-15 16.6717 -2.5162 4.98911 1.46344 -2.21179 4.44089e-16 9.6179 1.685 -0.474736 0.935397 -2.33864 4.5704 10.946 -2.628 -12.6659 3.85435 -10.6937 10.5924 -0.5246 -2.2321 -52.408 -10.9576 24.7923 27.8415 -0.0001 0 -0.783668 18.8443 -30.2827 28.3288 -7.10543e-15 3.55271e-15 7.2336 24.0559 -11.1736 -4.57 10.9462 -2.628 9.76086 3.2201 10.2909 -10.5928 -0.5248 -2.2321 48.7667 -11.2455 14.8277 -27.8415 0 1.42109e-14 2.46941 2.94172 39.8517 -28.3288 0 0.0001 -19.7011 17.3598 6.36528 8.2078 -6.7517 -1.5996 5.61387 -41.0418 7.57951 0 -44.3705 0.2846 1.63955 20.6192 -0.697695 2.66454e-15 -44.4279 -2.9822 -0.759199 -7.67573 0.316533 0 -8.7287 10.7106 -3.77367 -11.2959 2.42166 -8.2078 -6.7517 -1.5996 -0.270193 12.3297 -13.0087 -1.77636e-15 -44.3705 0.2862 1.50567 23.8791 14.3834 -1.33227e-15 -44.4277 -2.9838 -5.83097 -6.44668 0.825135 -4.44089e-16 -8.7287 10.7106 -0.482977 -29.0016 -2.4883 
